osimModel_states
nRows=100
nColumns=7
endheader
time	q1	q2	q3	q1_u	q2_u	q3_u
      0.00000000	    -43.85622442	     87.71229288	      0.00000000	      0.00000000	      0.00000000	      0.00000000
      0.01000000	    -43.86413415	     87.72811233	     -0.00790971	     -1.58051522	      3.16102631	     -1.58051109
      0.06000000	    -44.13204498	     88.26393327	     -0.27581983	     -8.89537594	     17.79072827	     -8.89535234
      0.17254900	    -45.64860485	     91.29704883	     -1.79237552	    -15.16124862	     30.32245369	    -15.16120506
      0.28509801	    -46.87145243	     93.74274035	     -3.01521947	     -4.40805343	      8.81609332	     -4.40803990
      0.39589985	    -46.47208727	     92.94401124	     -2.61585551	     10.91782995	    -21.83562715	     10.91779720
      0.50670170	    -44.90033374	     89.80050870	     -1.04410650	     14.61516065	    -29.23028096	     14.61512031
      0.61750354	    -43.87333069	     87.74650537	     -0.01710622	      1.95696352	     -3.91392193	      1.95695841
      0.71280708	    -44.36880392	     88.73745051	     -0.51257813	    -11.51021910	     23.02040728	    -11.51018818
      0.80811061	    -45.73375058	     91.46734003	     -1.87752099	    -14.94086376	     29.88168439	    -14.94082064
      0.93666942	    -46.92702925	     93.85389383	     -3.07079612	     -1.25774554	      2.51548721	     -1.25774166
      1.04985590	    -46.18276431	     92.36536619	     -2.32653342	     13.08249750	    -26.16495634	     13.08245884
      1.16304238	    -44.54363716	     89.08711653	     -0.68741091	     12.81395713	    -25.62787954	     12.81392242
      1.27622887	    -43.88738928	     87.77462253	     -0.03116478	     -2.49958984	      4.99917312	     -2.49958329
      1.37870781	    -44.83535096	     89.67054333	     -0.97912391	    -14.29595897	     28.59187860	    -14.29591963
      1.48118676	    -46.31675916	     92.63335548	     -2.46052786	    -12.13203416	     24.26403219	    -12.13199804
      1.59658504	    -46.89305542	     93.78594627	     -3.03682239	      3.15875525	     -6.31750080	      3.15874555
      1.71198333	    -45.73041199	     91.46066287	     -1.87418242	     14.86430176	    -29.72856064	     14.86425888
      1.82738162	    -44.16972373	     88.33929067	     -0.31349848	      9.15261958	    -18.30521483	      9.15259526
      1.93705013	    -44.03997393	     88.07979142	     -0.18374903	     -7.01759725	     14.03517597	     -7.01757872
      2.04671864	    -45.40048265	     90.80080513	     -1.54425402	    -15.23690957	     30.47377594	    -15.23686637
      2.15638715	    -46.74787302	     93.49558191	     -2.89164043	     -6.98770017	     13.97537904	     -6.98767887
      2.26568675	    -46.65957478	     93.31898570	     -2.80334246	      8.44200566	    -16.88398573	      8.44198007
      2.37498634	    -45.23301041	     90.46586112	     -1.37678225	     15.15053187	    -30.30102117	     15.15048930
      2.48428593	    -43.97683012	     87.95350396	     -0.12060538	      5.48192810	    -10.96384179	      5.48191369
      2.58187514	    -44.16284190	     88.32552702	     -0.30661666	     -8.96211571	     17.92420760	     -8.96209189
      2.67946435	    -45.44543203	     90.89070375	     -1.58920326	    -15.18446714	     30.36889113	    -15.18442399
      2.79827189	    -46.81784459	     93.63552484	     -2.96161179	     -5.35030060	     10.70058482	     -5.35028422
      2.90756145	    -46.54705990	     93.09395627	     -2.69082791	      9.83519693	    -19.67036424	      9.83516730
      3.01685101	    -45.05493387	     90.10970853	     -1.19870620	     14.82685580	    -29.65367034	     14.82681454
      3.12614057	    -43.92635731	     87.85255846	     -0.07013269	      3.70186504	     -7.40372037	      3.70185533
      3.22027995	    -44.24659655	     88.49303609	     -0.39037108	     -9.96254727	     19.92506794	     -9.96252067
      3.33369606	    -45.80475797	     91.60935460	     -1.94852817	    -14.54363806	     29.08723397	    -14.54359591
      3.44711216	    -46.88905015	     93.77793572	     -3.03281712	     -2.65733396	      5.31465974	     -2.65732578
      3.55910259	    -46.30839799	     92.61663316	     -2.45216671	     12.00239268	    -24.00474967	     12.00235699
      3.67109301	    -44.71249044	     89.42482261	     -0.85626371	     13.56310035	    -27.12616364	     13.56306329
      3.78308343	    -43.88776939	     87.77538272	     -0.03154487	     -0.43065676	      0.86131236	     -0.43065561
      3.88285331	    -44.62645976	     89.25276148	     -0.77023326	    -13.07334842	     26.14666124	    -13.07331282
      3.98262318	    -46.06881915	     92.13747617	     -2.21258857	    -13.45531341	     26.91058727	    -13.45527386
      4.09318161	    -46.94131389	     93.88246304	     -3.08508069	     -1.23629301	      2.47258219	     -1.23628919
      4.20374004	    -46.38767903	     92.77519500	     -2.53144750	      9.86047759	    -19.72092574	      9.86044815
      4.31429846	    -45.24489605	     90.48963234	     -1.38866783	      8.43302533	    -16.86602697	      8.43300164
      4.44223857	    -45.03994344	     90.07972769	     -1.18371579	     -6.11993086	     12.23984469	     -6.11991383
      4.57017868	    -46.56448036	     93.12879711	     -2.70824829	    -15.34920546	     30.69836464	    -15.34915917
      4.69811879	    -48.24776803	     96.49536714	     -4.39153065	     -8.72317853	     17.44632824	     -8.72314970
      4.82135699	    -48.52892229	     97.05767473	     -4.67268398	      3.93118831	     -7.86236343	      3.93117512
      4.94459518	    -47.60962163	     95.21907640	     -3.75338632	      8.92008411	    -17.84013978	      8.92005567
      5.06783338	    -46.88179878	     93.76343300	     -3.02556576	      1.15813076	     -2.31625799	      1.15812723
      5.18614949	    -47.46216539	     94.92416441	     -3.60593055	    -10.63664569	     21.27325771	    -10.63661202
      5.30446560	    -49.11378785	     98.22740385	     -5.25754754	    -15.59536294	     31.19067185	    -15.59530891
      5.45475779	    -51.03981815	    102.07945741	     -7.18357080	     -8.13342207	     16.26681272	     -8.13339065
      5.60047517	    -51.37487114	    102.74956208	     -7.51862248	      2.87475409	     -5.74949687	      2.87474278
      5.74619254	    -50.67639161	    101.35260571	     -6.82014564	      4.63637642	     -9.27273533	      4.63635891
      5.92264806	    -50.76725374	    101.53432964	     -6.91100744	     -7.04816117	     14.09629555	     -7.04813438
      6.07867205	    -52.70936760	    105.41854953	     -8.85311347	    -16.55419097	     33.10831151	    -16.55412054
      6.23469605	    -55.37972553	    110.75925307	    -11.52345908	    -16.04088412	     32.08168795	    -16.04080383
      6.42484847	    -57.64707631	    115.29394244	    -13.79079767	     -7.52034497	     15.04064643	     -7.52030146
      6.61500089	    -58.57822172	    117.15622770	    -14.72193752	     -3.95529223	      7.91056009	     -3.95526786
      6.80515331	    -59.86584944	    119.73147485	    -16.00955696	    -11.10464432	     22.20921384	    -11.10456952
      6.97303239	    -62.62430632	    125.24836807	    -18.76799329	    -21.93157273	     43.86296467	    -21.93139194
      7.04834134	    -64.44412633	    128.88799196	    -20.58779717	    -25.98227892	     51.96431063	    -25.98203171
      7.12365029	    -66.44384870	    132.88741598	    -22.58749883	    -26.49861509	     52.99693168	    -26.49831659
      7.35447087	    -70.91239397	    141.82444445	    -27.05598202	     -8.25407190	     16.50799919	     -8.25392729
      7.55827831	    -69.99204767	    139.98376655	    -26.13565043	     16.56393547	    -33.12760992	     16.56367445
      7.76208575	    -65.19817222	    130.39607615	    -21.34183548	     26.60529966	    -53.21033055	     26.60503089
      7.96589319	    -60.95149587	    121.90276003	    -17.09519570	     11.24836622	    -22.49665111	     11.24828489
      8.14516298	    -61.10768548	    122.21513800	    -17.25138406	    -12.84619041	     25.69228569	    -12.84609529
      8.32443277	    -64.89493111	    129.78959674	    -21.03859717	    -26.38920188	     52.77814228	    -26.38894040
      8.50370255	    -69.33111511	    138.66191093	    -25.47472736	    -19.92380026	     39.84730523	    -19.92350497
      8.70912001	    -71.11363575	    142.22692371	    -27.25721950	      3.94754063	     -7.89501167	      3.94747104
      8.91453747	    -67.95792929	    135.91555792	    -24.10156017	     24.28243132	    -48.56454838	     24.28211706
      9.11995493	    -62.73975618	    125.47926614	    -18.88344151	     22.06589464	    -44.13160591	     22.06571127
      9.32537239	    -60.50945245	    121.01867581	    -16.65315490	     -2.44874022	      4.89746273	     -2.44872251
      9.49758678	    -62.78980829	    125.57936982	    -18.93349307	    -22.20595851	     44.41173065	    -22.20577215
      9.66980118	    -67.18349917	    134.36670721	    -23.32713957	    -25.64218376	     51.28405731	    -25.64187354
      9.89737092	    -71.06350505	    142.12666269	    -27.20708918	     -5.08614316	     10.17219462	     -5.08605146
      9.99214602	    -70.97230664	    141.94426732	    -27.11589221	      6.97793541	    -13.95575041	      6.97781500
     10.03003704	    -70.60608800	    141.21183624	    -26.74967979	     12.81387488	    -25.62753566	     12.81366079
     10.06792805	    -69.95804409	    139.91575892	    -26.10164637	     21.92954597	    -43.85874819	     21.92920222
     10.22988216	    -61.60061547	    123.20099210	    -17.74430817	     84.87893408	   -169.75721089	     84.87827681
     10.32903103	    -51.35942172	    102.71866175	     -7.50317157	    118.07968699	   -236.15890363	    118.07921664
     10.40989949	    -41.58888462	     83.17761769	      2.26733539	    116.96102302	   -233.92176984	    116.96074683
     10.47507803	    -35.02645247	     70.05276662	      8.82975431	     77.08240876	   -154.16468562	     77.08227686
     10.52585126	    -32.57361142	     65.14708850	     11.28259138	     16.03722348	    -32.07442151	     16.03719803
     10.57662450	    -33.53673269	     67.07332963	     10.31947152	    -52.65031212	    105.30054303	    -52.65023091
     10.62739773	    -37.55166547	     75.10318830	      6.30454563	   -100.54661687	    201.09304284	   -100.54642597
     10.67817097	    -43.20641900	     86.41268294	      0.64980452	   -117.11138103	    234.22246603	   -117.11108500
     10.74580580	    -50.69030140	    101.38042451	     -6.83405465	    -97.15563617	    194.31090494	    -97.15526876
     10.81344062	    -55.55165378	    111.10310806	    -11.69538582	    -41.92022944	     83.84024800	    -41.92001856
     10.89727139	    -55.25339276	    110.50658772	    -11.39712651	     50.59166519	   -101.18307576	     50.59141056
     10.98110216	    -47.46420409	     94.92824147	     -3.60796892	    128.63309521	   -257.26578042	    128.63268521
     11.04141636	    -38.95998363	     77.91982244	      4.89622965	    145.05116781	   -290.10203741	    145.05086960
     11.10173057	    -31.33666472	     62.67319771	     12.51953548	     93.46463769	   -186.92914300	     93.46450531
     11.13997359	    -29.14741178	     58.29469478	     14.70878546	     16.62137998	    -33.24273762	     16.62135765
     11.17821661	    -30.17964100	     60.35915195	     13.67655751	    -68.60098989	    137.20189078	    -68.60090088
     11.21645964	    -34.02714138	     68.05414718	      9.82906266	   -126.39489050	    252.78958065	   -126.39469015
     11.25470266	    -39.35706558	     78.71398590	      4.49914814	   -146.45380100	    292.90729917	   -146.45349817
     11.30320017	    -46.18895037	     92.37773857	     -2.33271975	   -128.41136560	    256.82235425	   -128.41098864
     11.35169768	    -51.26644392	    102.53270854	     -7.41019616	    -76.48735509	    152.97441376	    -76.48705868
     11.41106516	    -53.24174842	    106.48330955	     -9.38549267	     12.60078215	    -25.20150686	     12.60072471
